<svg width="90" height="72" viewBox="0 0 90 72" fill="none" xmlns="http://www.w3.org/2000/svg">
<path d="M39.4433 51.9628C39.4433 50.3311 40.0071 48.9504 41.1346 47.8208C42.2621 46.6912 43.6401 46.1264 45.2688 46.1264C46.8974 46.1264 48.2755 46.6912 49.403 47.8208C50.5305 48.9504 51.0942 50.3311 51.0942 51.9628C51.0942 53.5945 50.5305 54.9751 49.403 56.1047C48.2755 57.2344 46.8974 57.7992 45.2688 57.7992C43.6401 57.7992 42.2621 57.2344 41.1346 56.1047C40.0071 54.9751 39.4433 53.5945 39.4433 51.9628ZM45.2688 31.8178C47.7117 31.8178 49.8728 31.7237 51.7519 31.5354C53.6311 31.2844 55.6356 30.6568 57.7653 29.6527C59.895 28.6486 62.3066 27.1424 65.0001 25.1342C67.7562 23.1259 71.1701 20.3333 75.2417 16.7561C76.3066 15.8775 77.3714 15.4382 78.4363 15.4382C79.689 15.4382 80.7539 15.8775 81.6308 16.7561C82.5078 17.6347 82.9463 18.7016 82.9463 19.9567C82.9463 20.647 82.7584 21.306 82.3826 21.9336C82.0694 22.5611 81.6622 23.0946 81.1611 23.5339C77.2148 27.0483 73.6757 29.9665 70.5437 32.2885C67.4744 34.5477 64.5617 36.3677 61.8055 37.7483C59.0494 39.0662 56.3559 40.0076 53.725 40.5724C51.0942 41.1372 48.2754 41.4196 45.2688 41.4196C42.0742 41.4196 39.1301 41.1686 36.4366 40.6665C33.8058 40.1017 31.1437 39.129 28.4502 37.7483C25.7567 36.3677 22.8752 34.5477 19.8059 32.2885C16.7366 29.9665 13.1975 27.0483 9.18854 23.5339C8.68742 23.0946 8.24897 22.5611 7.87314 21.9336C7.55994 21.306 7.40332 20.647 7.40332 19.9567C7.40332 18.7016 7.84177 17.6347 8.71872 16.7561C9.59567 15.8775 10.6606 15.4382 11.9134 15.4382C12.5398 15.4382 13.1034 15.5637 13.6046 15.8148C14.1057 16.0658 14.6068 16.3796 15.1079 16.7561C19.1169 20.2705 22.4681 23.0318 25.1616 25.04C27.9177 27.0483 30.3606 28.5544 32.4903 29.5585C34.6827 30.5627 36.7498 31.1902 38.6917 31.4412C40.6335 31.6923 42.8258 31.8178 45.2688 31.8178ZM50.9062 5.8364C50.9062 4.20472 51.47 2.82406 52.5975 1.69444C53.725 0.564813 55.1031 0 56.7317 0C58.3603 0 59.7384 0.564813 60.8659 1.69444C61.9934 2.82406 62.5572 4.20472 62.5572 5.8364C62.5572 7.46808 61.9934 8.84874 60.8659 9.97836C59.7384 11.108 58.3603 11.6728 56.7317 11.6728C55.1031 11.6728 53.725 11.108 52.5975 9.97836C51.47 8.84874 50.9062 7.46808 50.9062 5.8364ZM27.8864 5.8364C27.8864 4.20472 28.4501 2.82406 29.5776 1.69444C30.7051 0.564813 32.0831 0 33.7118 0C35.3404 0 36.7185 0.564813 37.846 1.69444C38.9735 2.82406 39.5372 4.20472 39.5372 5.8364C39.5372 7.46808 38.9735 8.84874 37.846 9.97836C36.7185 11.108 35.3404 11.6728 33.7118 11.6728C32.0831 11.6728 30.7051 11.108 29.5776 9.97836C28.4501 8.84874 27.8864 7.46808 27.8864 5.8364Z" fill="url(#paint0_linear_101_748)"/>
<defs>
<linearGradient id="paint0_linear_101_748" x1="45.1748" y1="0" x2="45.1748" y2="57.7992" gradientUnits="userSpaceOnUse">
<stop stop-color="white"/>
<stop offset="1" stop-color="#707070"/>
</linearGradient>
</defs>
</svg>
