<svg width="84" height="72" viewBox="0 0 84 72" fill="none" xmlns="http://www.w3.org/2000/svg">
<path d="M36.4652 47.3953C36.4652 45.7256 37.0434 44.3127 38.1994 43.1567C39.3554 42.0007 40.7682 41.4227 42.438 41.4227C44.1078 41.4227 45.5208 42.0007 46.6768 43.1567C47.8329 44.3127 48.4108 45.7256 48.4108 47.3953C48.4108 49.0651 47.8329 50.478 46.6768 51.6339C45.5208 52.7899 44.1078 53.3679 42.438 53.3679C40.7682 53.3679 39.3554 52.7899 38.1994 51.6339C37.0434 50.478 36.4652 49.0651 36.4652 47.3953ZM16.1387 56.0652C15.1754 57.2212 13.9872 57.7992 12.5743 57.7992C11.2898 57.7992 10.198 57.3496 9.29886 56.4505C8.39973 55.5514 7.9502 54.4597 7.9502 53.1752C7.9502 52.0193 8.27136 51.0881 8.91359 50.3816L32.3229 18.8811C33.4147 17.404 34.8598 16.2159 36.6581 15.3168C38.4563 14.3535 40.3829 13.8718 42.438 13.8718C44.3647 13.8718 46.1952 14.2892 47.9292 15.1241C49.6632 15.959 51.076 17.115 52.1678 18.5921L75.5774 49.9C75.9627 50.3495 76.2836 50.8633 76.5405 51.4413C76.7974 51.955 76.926 52.533 76.926 53.1752C76.926 54.4597 76.4765 55.5514 75.5774 56.4505C74.6782 57.3496 73.5864 57.7992 72.3019 57.7992C70.7605 57.7992 69.5403 57.1891 68.6412 55.9689L46.195 26.0096C45.7455 25.4959 45.1676 24.95 44.4611 24.372C43.8189 23.7298 43.1445 23.4087 42.438 23.4087C41.7315 23.4087 41.0253 23.7298 40.3188 24.372C39.6766 24.95 39.1626 25.4959 38.7773 26.0096L16.1387 56.0652ZM48.5071 5.97259C48.5071 4.30283 49.0852 2.88996 50.2413 1.73398C51.3973 0.577992 52.8101 0 54.4799 0C56.1497 0 57.5627 0.577992 58.7187 1.73398C59.8747 2.88996 60.4527 4.30283 60.4527 5.97259C60.4527 7.64234 59.8747 9.05521 58.7187 10.2112C57.5627 11.3672 56.1497 11.9452 54.4799 11.9452C52.8101 11.9452 51.3973 11.3672 50.2413 10.2112C49.0852 9.05521 48.5071 7.64234 48.5071 5.97259ZM24.9051 5.97259C24.9051 4.30283 25.4831 2.88996 26.6391 1.73398C27.7951 0.577992 29.2081 0 30.8779 0C32.5477 0 33.9605 0.577992 35.1166 1.73398C36.2726 2.88996 36.8507 4.30283 36.8507 5.97259C36.8507 7.64234 36.2726 9.05521 35.1166 10.2112C33.9605 11.3672 32.5477 11.9452 30.8779 11.9452C29.2081 11.9452 27.7951 11.3672 26.6391 10.2112C25.4831 9.05521 24.9051 7.64234 24.9051 5.97259Z" fill="url(#paint0_linear_101_740)"/>
<defs>
<linearGradient id="paint0_linear_101_740" x1="42.4381" y1="0" x2="42.4381" y2="57.7992" gradientUnits="userSpaceOnUse">
<stop stop-color="white"/>
<stop offset="1" stop-color="#707070"/>
</linearGradient>
</defs>
</svg>
