<svg width="86" height="72" viewBox="0 0 86 72" fill="none" xmlns="http://www.w3.org/2000/svg">
<path d="M70.8203 34.3266C71.9969 34.3266 72.997 34.7383 73.8206 35.5619C74.6442 36.3855 75.056 37.3857 75.056 38.5623C75.056 39.7388 74.6442 40.7389 73.8206 41.5625C72.997 42.3861 71.9969 42.7979 70.8203 42.7979H26.8753C25.6987 42.7979 24.6986 42.3861 23.875 41.5625C23.0514 40.7389 22.6396 39.7388 22.6396 38.5623C22.6396 37.3857 23.0514 36.3855 23.875 35.5619C24.6986 34.7383 25.6987 34.3266 26.8753 34.3266H70.8203ZM25.9046 27.7966C23.8456 27.7966 22.169 28.1789 20.8748 28.9437C19.6394 29.6496 18.6393 30.5321 17.8745 31.591C17.1686 32.6499 16.6685 33.8266 16.3744 35.1208C16.1391 36.3562 16.0214 37.5033 16.0214 38.5623C16.0214 39.6212 16.1391 40.7977 16.3744 42.0919C16.6685 43.3274 17.1686 44.4745 17.8745 45.5334C18.6393 46.5923 19.6394 47.5042 20.8748 48.2689C22.169 48.9749 23.8456 49.3279 25.9046 49.3279H74.5265C75.7031 49.3279 76.7032 49.7397 77.5268 50.5633C78.3504 51.3869 78.7622 52.387 78.7622 53.5636C78.7622 54.7402 78.3504 55.7402 77.5268 56.5638C76.7032 57.3874 75.7031 57.7992 74.5265 57.7992H23.0808C20.6689 57.7992 18.5216 57.2109 16.6391 56.0343C14.7566 54.8578 13.1388 53.3576 11.7857 51.534C10.4915 49.6514 9.49143 47.563 8.78548 45.2687C8.07954 42.9744 7.72656 40.7389 7.72656 38.5623C7.72656 36.3268 8.07954 34.0913 8.78548 31.8558C9.55025 29.5615 10.6386 27.5025 12.0505 25.6788C13.4624 23.7963 15.1684 22.2667 17.1686 21.0901C19.1687 19.9135 21.4336 19.3252 23.9633 19.3252H74.5265C75.7031 19.3252 76.7032 19.737 77.5268 20.5606C78.3504 21.3842 78.7622 22.3844 78.7622 23.5609C78.7622 24.7375 78.3504 25.7376 77.5268 26.5612C76.7032 27.3848 75.7031 27.7966 74.5265 27.7966H25.9046ZM29.9638 12.9718C29.9638 11.7952 30.405 10.7657 31.2874 9.88324L39.6705 1.41194L39.9353 1.23548C40.6412 0.41188 41.6413 0 42.9355 0C44.2298 0 45.2298 0.41188 45.9358 1.23548L46.2005 1.41194L54.5836 9.88324C55.466 10.7657 55.9073 11.7952 55.9073 12.9718C55.9073 14.1484 55.466 15.1778 54.5836 16.0602C53.76 16.8838 52.7599 17.2957 51.5833 17.2957C50.4068 17.2957 49.4361 16.8544 48.6713 15.972L42.9355 10.3245L37.1997 15.972C36.435 16.8544 35.4643 17.2957 34.2877 17.2957C33.1111 17.2957 32.0816 16.8838 31.1992 16.0602C30.3756 15.1778 29.9638 14.1484 29.9638 12.9718Z" fill="url(#paint0_linear_101_738)"/>
<defs>
<linearGradient id="paint0_linear_101_738" x1="43.2444" y1="0" x2="43.2444" y2="57.7992" gradientUnits="userSpaceOnUse">
<stop stop-color="white"/>
<stop offset="1" stop-color="#707070"/>
</linearGradient>
</defs>
</svg>
