<svg width="93" height="72" viewBox="0 0 93 72" fill="none" xmlns="http://www.w3.org/2000/svg">
<path d="M22.6931 39.5V49.3533H67.857C69.8486 49.3533 71.4888 49.0014 72.7776 48.2976C74.0663 47.5352 75.0621 46.6261 75.765 45.5703C76.5265 44.5146 77.0245 43.371 77.2588 42.1393C77.5517 40.849 77.6981 39.676 77.6981 38.6203C77.6981 37.5646 77.5517 36.4209 77.2588 35.1892C77.0245 33.8989 76.5265 32.7258 75.765 31.6701C75.0621 30.6144 74.0663 29.7346 72.7776 29.0308C71.4888 28.2683 69.8486 27.8871 67.857 27.8871H18.4755C17.3039 27.8871 16.3081 27.4766 15.488 26.6555C14.6679 25.8343 14.2579 24.8373 14.2579 23.6643C14.2579 22.4913 14.6679 21.4942 15.488 20.6731C16.3081 19.8519 17.3039 19.4414 18.4755 19.4414H69.7022C72.2211 19.4414 74.4763 20.0279 76.468 21.2009C78.4596 22.3739 80.1584 23.8989 81.5643 25.7758C82.9702 27.5939 84.0246 29.6467 84.7275 31.9341C85.489 34.1628 85.8698 36.3915 85.8698 38.6203C85.8698 40.7904 85.5183 42.9898 84.8154 45.2185C84.1124 47.4472 83.0873 49.4707 81.74 51.2889C80.4513 53.1071 78.8697 54.632 76.9952 55.8636C75.1207 57.0366 72.9826 57.6817 70.5809 57.799H18.4755C17.3039 57.799 16.3081 57.3885 15.488 56.5674C14.6679 55.7463 14.2579 54.7493 14.2579 53.5762V39.5H9.60088C8.89794 39.5 8.31215 39.2654 7.84352 38.7962C7.31632 38.2683 7.05273 37.6525 7.05273 36.9487C7.05273 36.2449 7.31632 35.6584 7.84352 35.1892C8.31215 34.6614 8.89794 34.3974 9.60088 34.3974H47.7353C48.4383 34.3974 49.0241 34.6614 49.4927 35.1892C50.0199 35.6584 50.2835 36.2449 50.2835 36.9487C50.2835 37.6525 50.0199 38.2683 49.4927 38.7962C49.0241 39.2654 48.4383 39.5 47.7353 39.5H22.6931Z" fill="url(#paint0_linear_101_734)"/>
<defs>
<linearGradient id="paint0_linear_101_734" x1="46.4613" y1="19.4414" x2="46.4613" y2="57.799" gradientUnits="userSpaceOnUse">
<stop stop-color="white"/>
<stop offset="1" stop-color="#707070"/>
</linearGradient>
</defs>
</svg>
