<svg width="88" height="72" viewBox="0 0 88 72" fill="none" xmlns="http://www.w3.org/2000/svg">
<path d="M48.2316 53.4862C48.2316 54.6843 47.8123 55.7026 46.9737 56.5412C46.135 57.3799 45.1167 57.7992 43.9186 57.7992C42.7205 57.7992 41.7022 57.3799 40.8635 56.5412C40.0249 55.7026 39.6055 54.6843 39.6055 53.4862V42.5238C37.3292 42.5238 35.1128 42.2244 32.9563 41.6253C30.7998 41.0263 28.5234 40.0978 26.1273 38.8398C23.7911 37.5219 21.2751 35.8446 18.5795 33.8079C15.8838 31.7712 12.8587 29.2852 9.50412 26.35C9.02489 25.9307 8.60557 25.4215 8.24615 24.8224C7.94663 24.2234 7.79688 23.5944 7.79688 22.9355C7.79688 21.7374 8.21619 20.719 9.05484 19.8804C9.89348 19.0417 10.9118 18.6224 12.1099 18.6224C12.7089 18.6224 13.2481 18.7423 13.7273 18.9819C14.2065 19.2215 14.6858 19.5209 15.165 19.8804C18.9988 23.235 22.2036 25.8707 24.7795 27.7876C27.4152 29.6446 29.7515 31.0225 31.7882 31.921C33.8848 32.8196 35.8616 33.3886 37.7186 33.6283C39.5756 33.808 41.6722 33.8978 44.0084 33.8978C46.3447 33.8978 48.4113 33.808 50.2084 33.6283C52.0055 33.4485 53.9225 32.9094 55.9592 32.0108C57.9959 31.1123 60.3022 29.7346 62.878 27.8776C65.5138 25.9606 68.7785 23.2949 72.6722 19.8804C73.6906 19.0417 74.7089 18.6224 75.7273 18.6224C76.9253 18.6224 77.9437 19.0417 78.7823 19.8804C79.621 20.719 80.0403 21.7374 80.0403 22.9355C80.0403 23.5944 79.8606 24.2234 79.5012 24.8224C79.2017 25.4215 78.8123 25.9307 78.3331 26.35C75.0384 29.2253 72.0133 31.7113 69.2577 33.8079C66.5022 35.8446 63.8963 37.5219 61.4403 38.8398C59.0442 40.0978 56.7379 41.0263 54.5215 41.6253C52.365 42.2244 50.2683 42.5238 48.2316 42.5238V53.4862ZM48.5012 0.561548C49.5196 -0.0374849 50.5978 -0.157225 51.736 0.202194C52.8741 0.501711 53.7427 1.1606 54.3418 2.17895C54.9408 3.19731 55.0906 4.2756 54.791 5.41376C54.4915 6.55193 53.8326 7.42046 52.8142 8.0195L39.5157 15.6572C38.4973 16.2563 37.4191 16.406 36.2809 16.1065C35.1427 15.7471 34.2741 15.0582 33.6751 14.0398C33.0761 13.0215 32.9263 11.9432 33.2258 10.805C33.5254 9.66685 34.1843 8.79831 35.2027 8.19928L48.5012 0.561548Z" fill="url(#paint0_linear_101_732)"/>
<defs>
<linearGradient id="paint0_linear_101_732" x1="43.9186" y1="0" x2="43.9186" y2="57.7992" gradientUnits="userSpaceOnUse">
<stop stop-color="white"/>
<stop offset="1" stop-color="#707070"/>
</linearGradient>
</defs>
</svg>
