<svg width="86" height="72" viewBox="0 0 86 72" fill="none" xmlns="http://www.w3.org/2000/svg">
<path d="M7.95801 23.5609C7.95801 22.3844 8.36979 21.3842 9.19339 20.5606C10.017 19.737 11.0171 19.3252 12.1937 19.3252H74.758C75.9345 19.3252 76.9346 19.737 77.7582 20.5606C78.5818 21.3842 78.9936 22.3844 78.9936 23.5609C78.9936 24.7375 78.5818 25.7376 77.7582 26.5612C76.9346 27.3848 75.9345 27.7966 74.758 27.7966H12.1937C11.0171 27.7966 10.017 27.3848 9.19339 26.5612C8.36979 25.7376 7.95801 24.7375 7.95801 23.5609ZM18.7237 57.7992C17.4294 57.7992 16.1352 57.5345 14.841 57.005C13.5467 56.4168 12.3996 55.6226 11.3995 54.6225C10.3994 53.6224 9.57577 52.4164 8.92866 51.0045C8.28154 49.5926 7.95801 48.0043 7.95801 46.2394V38.2975C7.95801 36.7091 8.39923 35.6503 9.28167 35.1208C10.2229 34.5913 11.6642 34.3266 13.6055 34.3266H72.8166C73.9932 34.3266 74.9933 34.7383 75.8169 35.5619C76.6405 36.3855 77.0523 37.3857 77.0523 38.5623C77.0523 39.7388 76.6405 40.7389 75.8169 41.5625C74.9933 42.3861 73.9932 42.7979 72.8166 42.7979H16.4293V47.1218C16.4293 47.7101 16.6647 48.2396 17.1353 48.7102C17.6647 49.122 18.3413 49.3279 19.1649 49.3279H74.758C75.9345 49.3279 76.9346 49.7397 77.7582 50.5633C78.5818 51.3869 78.9936 52.387 78.9936 53.5636C78.9936 54.7402 78.5818 55.7402 77.7582 56.5638C76.9346 57.3874 75.9345 57.7992 74.758 57.7992H18.7237ZM29.6658 12.9718C29.6658 11.7952 30.107 10.7657 30.9894 9.88324L39.3725 1.41194L39.6373 1.23548C40.3432 0.41188 41.3433 0 42.6375 0C43.9318 0 44.9318 0.41188 45.6378 1.23548L45.9025 1.41194L54.2856 9.88324C55.168 10.7657 55.6092 11.7952 55.6092 12.9718C55.6092 14.1484 55.168 15.1778 54.2856 16.0602C53.462 16.8838 52.4619 17.2957 51.2853 17.2957C50.1088 17.2957 49.1381 16.8544 48.3733 15.972L42.6375 10.3245L36.9017 15.972C36.1369 16.8544 35.1663 17.2957 33.9897 17.2957C32.8131 17.2957 31.7836 16.8838 30.9012 16.0602C30.0776 15.1778 29.6658 14.1484 29.6658 12.9718Z" fill="url(#paint0_linear_101_750)"/>
<defs>
<linearGradient id="paint0_linear_101_750" x1="43.4758" y1="0" x2="43.4758" y2="57.7992" gradientUnits="userSpaceOnUse">
<stop stop-color="white"/>
<stop offset="1" stop-color="#707070"/>
</linearGradient>
</defs>
</svg>
