<svg width="93" height="72" viewBox="0 0 93 72" fill="none" xmlns="http://www.w3.org/2000/svg">
<path d="M65.6721 48.5513C67.8556 48.5513 69.6538 48.166 71.0666 47.3953C72.4795 46.5605 73.5713 45.565 74.3419 44.409C75.1768 43.2531 75.7227 42.0008 75.9796 40.6521C76.3007 39.2392 76.4612 37.9549 76.4612 36.7989C76.4612 35.6429 76.3007 34.3906 75.9796 33.0419C75.7227 31.6291 75.1768 30.3446 74.3419 29.1886C73.5713 28.0326 72.4795 27.0693 71.0666 26.2986C69.6538 25.4637 67.8556 25.0463 65.6721 25.0463H26.7539C24.5062 25.0463 22.6759 25.4637 21.263 26.2986C19.9143 27.0693 18.8226 28.0326 17.9877 29.1886C17.217 30.3446 16.6712 31.6291 16.35 33.0419C16.0932 34.3906 15.9647 35.6429 15.9647 36.7989C15.9647 37.9549 16.0932 39.2392 16.35 40.6521C16.6712 42.0008 17.217 43.2531 17.9877 44.409C18.8226 45.565 19.9143 46.5605 21.263 47.3953C22.6759 48.166 24.5062 48.5513 26.7539 48.5513H65.6721ZM85.4201 36.7989C85.4201 39.2393 85.0027 41.7118 84.1678 44.2164C83.3971 46.6568 82.2412 48.9046 80.6999 50.9596C79.1585 52.9505 77.2961 54.5881 75.1126 55.8726C72.9291 57.157 70.4565 57.7992 67.695 57.7992H23.7676C21.1345 57.6707 18.7905 56.9644 16.7354 55.6799C14.6803 54.3313 12.9142 52.6616 11.4371 50.6707C10.0243 48.6798 8.93248 46.4642 8.16183 44.0238C7.39117 41.5834 7.00586 39.1751 7.00586 36.7989C7.00586 34.3585 7.39117 31.9181 8.16183 29.4776C8.9967 26.973 10.1848 24.7253 11.7261 22.7344C13.2674 20.6793 15.1299 19.0095 17.3134 17.7251C19.4969 16.4406 21.9694 15.7984 24.731 15.7984H68.6583C71.2914 15.9269 73.6355 16.6655 75.6906 18.0141C77.7457 19.2985 79.4796 20.9362 80.8925 22.927C82.3696 24.9179 83.4935 27.1335 84.2641 29.574C85.0348 32.0144 85.4201 34.4227 85.4201 36.7989ZM51.3186 5.9726C51.3186 4.30285 51.8966 2.88998 53.0525 1.73399C54.2085 0.578008 55.6214 0 57.2912 0C58.9609 0 60.3738 0.578008 61.5298 1.73399C62.6857 2.88998 63.2638 4.30285 63.2638 5.9726C63.2638 7.64235 62.6857 9.05523 61.5298 10.2112C60.3738 11.3672 58.9609 11.9452 57.2912 11.9452C55.6214 11.9452 54.2085 11.3672 53.0525 10.2112C51.8966 9.05523 51.3186 7.64235 51.3186 5.9726ZM27.7172 5.9726C27.7172 4.30285 28.2952 2.88998 29.4512 1.73399C30.6072 0.578008 32.0201 0 33.6898 0C35.3596 0 36.7725 0.578008 37.9284 1.73399C39.0844 2.88998 39.6624 4.30285 39.6624 5.9726C39.6624 7.64235 39.0844 9.05523 37.9284 10.2112C36.7725 11.3672 35.3596 11.9452 33.6898 11.9452C32.0201 11.9452 30.6072 11.3672 29.4512 10.2112C28.2952 9.05523 27.7172 7.64235 27.7172 5.9726Z" fill="url(#paint0_linear_101_728)"/>
<defs>
<linearGradient id="paint0_linear_101_728" x1="46.213" y1="0" x2="46.213" y2="57.7992" gradientUnits="userSpaceOnUse">
<stop stop-color="white"/>
<stop offset="1" stop-color="#707070"/>
</linearGradient>
</defs>
</svg>
