<svg width="82" height="72" viewBox="0 0 82 72" fill="none" xmlns="http://www.w3.org/2000/svg">
<path d="M66.1818 39.1598C66.1818 38.1338 66.0394 37.0223 65.7544 35.8253C65.5264 34.5713 65.0417 33.4312 64.3007 32.4052C63.6167 31.3791 62.6478 30.5241 61.3938 29.8401C60.1398 29.0991 58.5436 28.7286 56.6056 28.7286H25.7394C23.7443 28.7286 22.1199 29.0991 20.8659 29.8401C19.6688 30.5241 18.6997 31.3791 17.9587 32.4052C17.2747 33.4312 16.7903 34.5713 16.5053 35.8253C16.2773 37.0223 16.1633 38.1338 16.1633 39.1598V53.6952C16.1633 54.8352 15.7641 55.8042 14.9661 56.6022C14.1681 57.4002 13.1992 57.7992 12.0592 57.7992C10.9192 57.7992 9.9501 57.4002 9.15208 56.6022C8.35406 55.8042 7.95508 54.8352 7.95508 53.6952V39.1598C7.95508 36.9938 8.29709 34.8278 8.98111 32.6617C9.72212 30.4387 10.7767 28.4436 12.1447 26.6766C13.5127 24.8526 15.1656 23.3705 17.1037 22.2304C19.0417 21.0904 21.2364 20.5204 23.6875 20.5204H59.5127C61.8497 20.6344 63.9303 21.29 65.7544 22.487C67.5784 23.627 69.1174 25.0805 70.3714 26.8476C71.6824 28.6146 72.68 30.5812 73.364 32.7472C74.048 34.9133 74.39 37.0508 74.39 39.1598V53.6952C74.39 54.8352 73.9911 55.8042 73.193 56.6022C72.395 57.4002 71.4259 57.7992 70.2859 57.7992C69.1459 57.7992 68.1768 57.4002 67.3788 56.6022C66.5808 55.8042 66.1818 54.8352 66.1818 53.6952V39.1598ZM47.0293 16.8438C45.4903 16.8438 44.0653 16.5874 42.7542 16.0744C41.4432 15.5613 40.3032 14.8203 39.3342 13.8513C38.4222 12.9393 37.7382 12.1412 37.2821 11.4572C36.8261 10.7162 36.4272 10.1177 36.0851 9.66171C35.8001 9.1487 35.4581 8.7782 35.0591 8.55019C34.7171 8.32219 34.2042 8.20815 33.5202 8.20815C32.6081 8.20815 31.81 8.49319 31.126 9.06321C30.4989 9.57622 30.0715 10.2318 29.8435 11.0298C29.6155 11.9418 29.131 12.7113 28.39 13.3383C27.706 13.9083 26.8795 14.1933 25.9105 14.1933C24.7705 14.1933 23.8014 13.7943 23.0034 12.9963C22.2054 12.1982 21.8064 11.2293 21.8064 10.0892C21.8064 9.57623 21.8919 9.09168 22.0629 8.63568C22.7469 6.07062 24.1434 3.99014 26.2525 2.39411C28.3615 0.798072 30.7841 0 33.5202 0C36.6552 0 39.1918 1.02605 41.1298 3.07809C42.0418 4.04711 42.7259 4.90215 43.1819 5.64317C43.6379 6.32719 44.0369 6.89718 44.3789 7.35319C44.7209 7.8092 45.0629 8.15121 45.4049 8.37922C45.8039 8.55022 46.3453 8.63568 47.0293 8.63568C47.9414 8.63568 48.7108 8.37921 49.3379 7.8662C50.0219 7.29619 50.478 6.61216 50.706 5.81414C50.934 4.90212 51.39 4.16112 52.074 3.59111C52.815 2.96409 53.67 2.65056 54.639 2.65056C55.779 2.65056 56.7481 3.04955 57.5461 3.84757C58.3441 4.64558 58.7431 5.61466 58.7431 6.75469C58.7431 7.3247 58.6577 7.80914 58.4867 8.20815C57.8026 10.7732 56.4061 12.8538 54.297 14.4498C52.188 16.0459 49.7654 16.8438 47.0293 16.8438Z" fill="url(#paint0_linear_101_746)"/>
<defs>
<linearGradient id="paint0_linear_101_746" x1="41.1726" y1="0" x2="41.1726" y2="57.7992" gradientUnits="userSpaceOnUse">
<stop stop-color="white"/>
<stop offset="1" stop-color="#707070"/>
</linearGradient>
</defs>
</svg>
