<svg width="84" height="72" viewBox="0 0 84 72" fill="none" xmlns="http://www.w3.org/2000/svg">
<path d="M36.9059 66.5349C36.9059 65.0602 37.416 63.8124 38.436 62.7915C39.4561 61.7705 40.7028 61.26 42.1763 61.26C43.6497 61.26 44.8964 61.7705 45.9165 62.7915C46.9366 63.8124 47.4466 65.0602 47.4466 66.5349C47.4466 68.0096 46.9366 69.2574 45.9165 70.2784C44.8964 71.2993 43.6497 71.8098 42.1763 71.8098C40.7028 71.8098 39.4561 71.2993 38.436 70.2784C37.416 69.2574 36.9059 68.0096 36.9059 66.5349ZM36.9059 11.4038C36.9059 9.92911 37.416 8.68129 38.436 7.66034C39.4561 6.63939 40.7028 6.12891 42.1763 6.12891C43.6497 6.12891 44.8964 6.63939 45.9165 7.66034C46.9366 8.68129 47.4466 9.92911 47.4466 11.4038C47.4466 12.8785 46.9366 14.1263 45.9165 15.1473C44.8964 16.1682 43.6497 16.6787 42.1763 16.6787C40.7028 16.6787 39.4561 16.1682 38.436 15.1473C37.416 14.1263 36.9059 12.8785 36.9059 11.4038ZM18.7148 43.0532C17.1281 43.0532 15.6547 42.7696 14.2946 42.2024C12.9345 41.5785 11.7444 40.756 10.7244 39.735C9.7043 38.7141 8.88264 37.523 8.25927 36.1618C7.69257 34.8005 7.40918 33.3258 7.40918 31.7377C7.40918 30.1495 7.69257 28.6748 8.25927 27.3135C8.88264 25.9523 9.7043 24.7612 10.7244 23.7403C11.7444 22.7193 12.9345 21.9252 14.2946 21.358C15.6547 20.7341 17.1281 20.4221 18.7148 20.4221H70.3129C71.4463 20.4221 72.4097 20.8192 73.2031 21.6133C73.9965 22.4073 74.3932 23.3716 74.3932 24.506C74.3932 25.6404 73.9965 26.6045 73.2031 27.3986C72.4097 28.1927 71.4463 28.5897 70.3129 28.5897H18.5449C17.6948 28.5897 16.9297 28.9017 16.2497 29.5256C15.6263 30.0928 15.3147 30.8302 15.3147 31.7377C15.3147 32.5885 15.6263 33.3258 16.2497 33.9497C16.9297 34.5736 17.6948 34.8856 18.5449 34.8856H65.5527C67.1395 34.8856 68.6129 35.1975 69.9729 35.8214C71.3897 36.3886 72.6081 37.1827 73.6282 38.2037C74.6482 39.2246 75.4416 40.444 76.0083 41.862C76.6316 43.2233 76.9434 44.698 76.9434 46.2861C76.9434 47.8743 76.6316 49.349 76.0083 50.7102C75.4416 52.0715 74.6482 53.2626 73.6282 54.2836C72.6081 55.3045 71.3897 56.0986 69.9729 56.6658C68.6129 57.233 67.1395 57.5166 65.5527 57.5166H14.0395C12.9061 57.5166 11.9428 57.1195 11.1494 56.3254C10.356 55.5314 9.95936 54.5672 9.95936 53.4328C9.95936 52.2984 10.356 51.3342 11.1494 50.5401C11.9428 49.746 12.9061 49.349 14.0395 49.349H65.8927C66.7427 49.349 67.4794 49.0654 68.1028 48.4982C68.7261 47.8743 69.0379 47.1369 69.0379 46.2861C69.0379 45.3786 68.7261 44.6129 68.1028 43.989C67.4794 43.3651 66.7427 43.0532 65.8927 43.0532H18.7148Z" fill="url(#paint0_linear_101_744)"/>
<defs>
<linearGradient id="paint0_linear_101_744" x1="42.1763" y1="6.12891" x2="42.1763" y2="71.8098" gradientUnits="userSpaceOnUse">
<stop stop-color="white"/>
<stop offset="1" stop-color="#707070"/>
</linearGradient>
</defs>
</svg>
