<svg width="87" height="72" viewBox="0 0 87 72" fill="none" xmlns="http://www.w3.org/2000/svg">
<path d="M52.2042 46.0982C52.2042 46.978 52.4388 47.7111 52.9082 48.2976C53.4362 48.8841 54.0523 49.236 54.7564 49.3534H61.3567C63.3515 49.3534 64.9943 49.0014 66.285 48.2976C67.5758 47.5352 68.5731 46.6261 69.2771 45.5704C70.0398 44.5146 70.5386 43.371 70.7733 42.1393C71.0666 40.849 71.2132 39.676 71.2132 38.6203C71.2132 37.5646 71.0666 36.4209 70.7733 35.1892C70.5386 33.8989 70.0398 32.7258 69.2771 31.6701C68.5731 30.6144 67.5758 29.7346 66.285 29.0308C64.9943 28.2683 63.3515 27.8871 61.3567 27.8871H25.8028C23.7493 27.8871 22.0771 28.2683 20.7864 29.0308C19.5543 29.7346 18.557 30.6144 17.7943 31.6701C17.0902 32.7258 16.5915 33.8989 16.2982 35.1892C16.0635 36.4209 15.9462 37.5646 15.9462 38.6203C15.9462 39.676 16.0635 40.849 16.2982 42.1393C16.5915 43.371 17.0902 44.5146 17.7943 45.5704C18.557 46.6261 19.5543 47.5352 20.7864 48.2976C22.0771 49.0014 23.7493 49.3534 25.8028 49.3534H33.3711C34.5445 49.3534 35.542 49.7639 36.3633 50.585C37.1847 51.3475 37.5954 52.3153 37.5954 53.4883C37.5954 54.6613 37.1847 55.6583 36.3633 56.4794C35.542 57.3006 34.5445 57.7111 33.3711 57.7111V57.7991H23.0746C20.6691 57.6817 18.5276 57.0366 16.6502 55.8636C14.7728 54.632 13.1593 53.1071 11.8099 51.2889C10.5192 49.4707 9.52183 47.4472 8.81779 45.2185C8.11375 42.9898 7.76172 40.7904 7.76172 38.6203C7.76172 36.3915 8.11375 34.1628 8.81779 31.9341C9.5805 29.6467 10.6659 27.5939 12.074 25.7758C13.4821 23.8989 15.1835 22.3739 17.1782 21.2009C19.173 20.0279 21.4318 19.4414 23.9546 19.4414H64.0849C66.4903 19.5587 68.6317 20.2332 70.5092 21.4649C72.3866 22.6379 73.9708 24.1335 75.2615 25.9517C76.6109 27.7699 77.6376 29.7933 78.3416 32.022C79.0456 34.2508 79.3977 36.4502 79.3977 38.6203C79.3977 40.849 79.0163 43.107 78.2536 45.3944C77.5496 47.6232 76.4935 49.6759 75.0854 51.5528C73.6773 53.3709 71.9759 54.8665 69.9811 56.0395C67.9864 57.2126 65.7276 57.7991 63.2048 57.7991H54.3163C52.7909 57.7991 51.3828 57.5352 50.092 57.0073C48.86 56.4208 47.7452 55.6584 46.7478 54.7199C45.8091 53.7229 45.0758 52.5792 44.5477 51.2889C44.0197 49.9399 43.7557 48.5323 43.7557 47.066V42.7551C43.7557 41.5821 44.1664 40.5851 44.9878 39.764C45.8091 38.9429 46.8066 38.5323 47.98 38.5323C49.0947 38.5323 50.0628 38.9429 50.8841 39.764C51.7642 40.5851 52.2042 41.5821 52.2042 42.7551V46.0982Z" fill="url(#paint0_linear_101_742)"/>
<defs>
<linearGradient id="paint0_linear_101_742" x1="43.5797" y1="19.4414" x2="43.5797" y2="57.799" gradientUnits="userSpaceOnUse">
<stop stop-color="white"/>
<stop offset="1" stop-color="#707070"/>
</linearGradient>
</defs>
</svg>
