<svg width="84" height="72" viewBox="0 0 84 72" fill="none" xmlns="http://www.w3.org/2000/svg">
<path d="M16.332 35.3651V41.8753H65.1844C66.0647 41.8753 66.8275 41.5528 67.473 40.9076C68.1772 40.2624 68.5293 39.5 68.5293 38.6202C68.5293 37.7405 68.1772 36.978 67.473 36.3328C66.8275 35.6877 66.0647 35.3651 65.1844 35.3651H16.332ZM76.7154 38.6202C76.7154 40.2624 76.3926 41.7874 75.7471 43.195C75.1603 44.6026 74.3095 45.8343 73.1945 46.89C72.1383 47.9457 70.8766 48.7962 69.4096 49.4413C68.0012 50.0278 66.4755 50.3211 64.8324 50.3211H16.332V53.5762C16.332 54.7492 15.9212 55.7463 15.0997 56.5674C14.2781 57.3885 13.2806 57.799 12.107 57.799C10.9333 57.799 9.93567 57.3885 9.11413 56.5674C8.29258 55.7463 7.88184 54.7492 7.88184 53.5762V23.6643C7.88184 22.4912 8.29258 21.4942 9.11413 20.6731C9.93567 19.852 10.9333 19.4414 12.107 19.4414C13.2806 19.4414 14.2781 19.852 15.0997 20.6731C15.9212 21.4942 16.332 22.4912 16.332 23.6643V26.9194H64.8324C66.4755 26.9194 68.0012 27.242 69.4096 27.8871C70.8766 28.4736 72.1383 29.2947 73.1945 30.3505C74.3095 31.4062 75.1603 32.6378 75.7471 34.0455C76.3926 35.4531 76.7154 36.978 76.7154 38.6202Z" fill="url(#paint0_linear_101_736)"/>
<defs>
<linearGradient id="paint0_linear_101_736" x1="42.2986" y1="19.4414" x2="42.2986" y2="57.799" gradientUnits="userSpaceOnUse">
<stop stop-color="white"/>
<stop offset="1" stop-color="#707070"/>
</linearGradient>
</defs>
</svg>
