<svg width="77" height="72" viewBox="0 0 77 72" fill="none" xmlns="http://www.w3.org/2000/svg">
<path d="M69.7847 45.0538C69.7847 46.5024 69.2768 47.7337 68.261 48.7477C67.3234 49.7617 66.0732 50.2687 64.5105 50.2687C62.9477 50.2687 61.6194 49.7617 60.5255 48.7477C59.4316 47.7337 58.8846 46.5024 58.8846 45.0538V35.8189C58.8846 34.7325 58.4158 33.7909 57.4782 32.9942C56.6187 32.1974 55.6029 31.799 54.4308 31.799H13.0575C11.4947 31.799 10.1664 31.2921 9.07251 30.278C7.9786 29.264 7.43164 28.0328 7.43164 26.5842C7.43164 25.1356 7.9786 23.9042 9.07251 22.8901C10.1664 21.8761 11.4947 21.3691 13.0575 21.3691H53.962C56.1499 21.3691 58.1814 21.7675 60.0567 22.5643C62.0101 23.2886 63.69 24.3025 65.0965 25.6063C66.5811 26.91 67.7141 28.4311 68.4955 30.1694C69.355 31.9077 69.7847 33.7909 69.7847 35.8189V45.0538Z" fill="url(#paint0_linear_101_730)"/>
<defs>
<linearGradient id="paint0_linear_101_730" x1="38.6082" y1="21.3691" x2="38.6082" y2="50.2687" gradientUnits="userSpaceOnUse">
<stop stop-color="white"/>
<stop offset="1" stop-color="#707070"/>
</linearGradient>
</defs>
</svg>
