<svg width="1000" height="173" viewBox="0 0 1000 173" fill="none" xmlns="http://www.w3.org/2000/svg">
<path d="M167.832 82.4932C170.649 82.4932 173.044 83.4791 175.016 85.451C176.988 87.4228 177.973 89.8174 177.973 92.6343C177.973 95.4513 176.988 97.8456 175.016 99.8175C173.044 101.789 170.649 102.775 167.832 102.775H62.6193C59.8024 102.775 57.408 101.789 55.4361 99.8175C53.4642 97.8456 52.4783 95.4513 52.4783 92.6343C52.4783 89.8174 53.4642 87.4228 55.4361 85.451C57.408 83.4791 59.8024 82.4932 62.6193 82.4932H167.832ZM60.2953 66.8591C55.3657 66.8591 51.3515 67.7746 48.2529 69.6056C45.2951 71.2957 42.9007 73.4085 41.0696 75.9438C39.3795 78.479 38.1823 81.2961 37.478 84.3948C36.9146 87.3526 36.6329 90.0991 36.6329 92.6343C36.6329 95.1696 36.9146 97.9865 37.478 101.085C38.1823 104.043 39.3795 106.789 41.0696 109.325C42.9007 111.86 45.2951 114.043 48.2529 115.874C51.3515 117.564 55.3657 118.409 60.2953 118.409H176.706C179.523 118.409 181.917 119.395 183.889 121.367C185.861 123.339 186.847 125.734 186.847 128.55C186.847 131.367 185.861 133.762 183.889 135.734C181.917 137.705 179.523 138.691 176.706 138.691H53.5346C47.7599 138.691 42.619 137.283 38.1118 134.466C33.6047 131.649 29.7314 128.057 26.4919 123.691C23.3933 119.184 20.9989 114.184 19.3087 108.691C17.6185 103.198 16.7734 97.8457 16.7734 92.6343C16.7734 87.2821 17.6185 81.9299 19.3087 76.5777C21.1397 71.0847 23.7454 66.155 27.1257 61.7888C30.5061 57.2816 34.5907 53.6194 39.3795 50.8025C44.1683 47.9855 49.5909 46.5771 55.6474 46.5771H176.706C179.523 46.5771 181.917 47.563 183.889 49.5348C185.861 51.5067 186.847 53.9012 186.847 56.7182C186.847 59.5351 185.861 61.9295 183.889 63.9013C181.917 65.8732 179.523 66.8591 176.706 66.8591H60.2953ZM70.0138 31.3656C70.0138 28.5487 71.0702 26.0838 73.1829 23.971L93.2537 3.68905L93.8875 3.26658C95.5776 1.29472 97.9721 0.308594 101.071 0.308594C104.169 0.308594 106.564 1.29472 108.254 3.26658L108.888 3.68905L128.959 23.971C131.071 26.0838 132.128 28.5487 132.128 31.3656C132.128 34.1826 131.071 36.6473 128.959 38.76C126.987 40.7319 124.592 41.718 121.775 41.718C118.958 41.718 116.634 40.6615 114.803 38.5488L101.071 25.0274L87.3381 38.5488C85.507 40.6615 83.1831 41.718 80.3661 41.718C77.5492 41.718 75.0843 40.7319 72.9716 38.76C70.9998 36.6473 70.0138 34.1826 70.0138 31.3656Z" fill="url(#paint0_linear_83_1513)"/>
<path d="M289.083 113.782C289.083 109.785 290.467 106.402 293.235 103.634C296.003 100.867 299.385 99.4829 303.383 99.4829C307.381 99.4829 310.764 100.867 313.532 103.634C316.3 106.402 317.683 109.785 317.683 113.782C317.683 117.78 316.3 121.163 313.532 123.931C310.764 126.698 307.381 128.082 303.383 128.082C299.385 128.082 296.003 126.698 293.235 123.931C290.467 121.163 289.083 117.78 289.083 113.782ZM240.417 134.54C238.111 137.308 235.266 138.691 231.884 138.691C228.808 138.691 226.194 137.615 224.041 135.462C221.889 133.31 220.812 130.696 220.812 127.621C220.812 124.853 221.581 122.624 223.119 120.932L279.166 45.5136C281.78 41.9772 285.239 39.1327 289.545 36.98C293.85 34.6736 298.463 33.5204 303.383 33.5204C307.996 33.5204 312.379 34.5199 316.53 36.5187C320.682 38.5176 324.064 41.2853 326.678 44.8217L382.725 119.779C383.648 120.855 384.416 122.085 385.031 123.469C385.646 124.699 385.954 126.083 385.954 127.621C385.954 130.696 384.878 133.31 382.725 135.462C380.573 137.615 377.959 138.691 374.883 138.691C371.193 138.691 368.271 137.231 366.119 134.309L312.378 62.5808C311.302 61.3508 309.918 60.0438 308.227 58.66C306.689 57.1224 305.075 56.3536 303.383 56.3536C301.692 56.3536 300.001 57.1224 298.309 58.66C296.772 60.0438 295.541 61.3508 294.619 62.5808L240.417 134.54ZM317.914 14.6082C317.914 10.6104 319.298 7.22773 322.066 4.46008C324.833 1.69242 328.216 0.308594 332.214 0.308594C336.212 0.308594 339.595 1.69242 342.362 4.46008C345.13 7.22773 346.514 10.6104 346.514 14.6082C346.514 18.6059 345.13 21.9886 342.362 24.7562C339.595 27.5239 336.212 28.9077 332.214 28.9077C328.216 28.9077 324.833 27.5239 322.066 24.7562C319.298 21.9886 317.914 18.6059 317.914 14.6082ZM261.406 14.6082C261.406 10.6104 262.79 7.22773 265.557 4.46008C268.325 1.69242 271.708 0.308594 275.706 0.308594C279.704 0.308594 283.086 1.69242 285.854 4.46008C288.622 7.22773 290.006 10.6104 290.006 14.6082C290.006 18.6059 288.622 21.9886 285.854 24.7562C283.086 27.5239 279.704 28.9077 275.706 28.9077C271.708 28.9077 268.325 27.5239 265.557 24.7562C262.79 21.9886 261.406 18.6059 261.406 14.6082Z" fill="url(#paint1_linear_83_1513)"/>
<path d="M525.486 110.677C525.486 112.783 526.048 114.539 527.172 115.943C528.436 117.347 529.911 118.19 531.597 118.471H547.399C552.175 118.471 556.108 117.628 559.198 115.943C562.289 114.118 564.677 111.941 566.362 109.413C568.188 106.886 569.382 104.148 569.944 101.199C570.646 98.1094 570.997 95.3011 570.997 92.7735C570.997 90.2459 570.646 87.5077 569.944 84.5589C569.382 81.4696 568.188 78.661 566.362 76.1334C564.677 73.6058 562.289 71.4994 559.198 69.8144C556.108 67.9889 552.175 67.0762 547.399 67.0762H462.276C457.36 67.0762 453.356 67.9889 450.266 69.8144C447.316 71.4994 444.928 73.6058 443.102 76.1334C441.416 78.661 440.222 81.4696 439.52 84.5589C438.958 87.5077 438.677 90.2459 438.677 92.7735C438.677 95.3011 438.958 98.1094 439.52 101.199C440.222 104.148 441.416 106.886 443.102 109.413C444.928 111.941 447.316 114.118 450.266 115.943C453.356 117.628 457.36 118.471 462.276 118.471H480.396C483.205 118.471 485.593 119.453 487.56 121.419C489.527 123.245 490.51 125.562 490.51 128.37C490.51 131.179 489.527 133.566 487.56 135.532C485.593 137.498 483.205 138.481 480.396 138.481V138.691H455.744C449.985 138.41 444.858 136.866 440.363 134.057C435.868 131.109 432.005 127.458 428.774 123.105C425.684 118.752 423.296 113.907 421.61 108.571C419.925 103.235 419.082 97.9691 419.082 92.7735C419.082 87.4375 419.925 82.1015 421.61 76.7654C423.437 71.289 426.035 66.3742 429.406 62.0212C432.778 57.5277 436.851 53.8765 441.627 51.0681C446.403 48.2596 451.811 46.8555 457.851 46.8555H553.931C559.69 47.1363 564.817 48.7512 569.312 51.7001C573.807 54.5085 577.6 58.0893 580.69 62.4424C583.921 66.7954 586.379 71.64 588.064 76.976C589.75 82.3121 590.593 87.5779 590.593 92.7735C590.593 98.1095 589.68 103.516 587.854 108.992C586.168 114.328 583.64 119.243 580.268 123.736C576.897 128.09 572.824 131.67 568.048 134.479C563.272 137.287 557.864 138.691 551.824 138.691H530.543C526.891 138.691 523.52 138.059 520.429 136.796C517.479 135.391 514.811 133.566 512.423 131.319C510.175 128.932 508.419 126.194 507.155 123.105C505.891 119.875 505.259 116.505 505.259 112.994V102.673C505.259 99.8647 506.242 97.4776 508.209 95.5117C510.175 93.5458 512.563 92.5629 515.373 92.5629C518.041 92.5629 520.359 93.5458 522.326 95.5117C524.433 97.4776 525.486 99.8647 525.486 102.673V110.677Z" fill="url(#paint2_linear_83_1513)"/>
<path d="M694.761 159.61C694.761 156.08 695.982 153.092 698.424 150.648C700.866 148.203 703.851 146.981 707.379 146.981C710.907 146.981 713.892 148.203 716.334 150.648C718.776 153.092 719.997 156.08 719.997 159.61C719.997 163.141 718.776 166.129 716.334 168.573C713.892 171.017 710.907 172.239 707.379 172.239C703.851 172.239 700.866 171.017 698.424 168.573C695.982 166.129 694.761 163.141 694.761 159.61ZM694.761 27.6155C694.761 24.0848 695.982 21.0972 698.424 18.6529C700.866 16.2085 703.851 14.9863 707.379 14.9863C710.907 14.9863 713.892 16.2085 716.334 18.6529C718.776 21.0972 719.997 24.0848 719.997 27.6155C719.997 31.1462 718.776 34.1338 716.334 36.5781C713.892 39.0225 710.907 40.2446 707.379 40.2446C703.851 40.2446 700.866 39.0225 698.424 36.5781C695.982 34.1338 694.761 31.1462 694.761 27.6155ZM651.208 103.39C647.409 103.39 643.881 102.711 640.625 101.353C637.368 99.8596 634.519 97.8904 632.077 95.4461C629.635 93.0018 627.667 90.1501 626.175 86.8909C624.818 83.6318 624.14 80.1011 624.14 76.2988C624.14 72.4965 624.818 68.9657 626.175 65.7066C627.667 62.4474 629.635 59.5957 632.077 57.1514C634.519 54.707 637.368 52.8059 640.625 51.4479C643.881 49.9541 647.409 49.2072 651.208 49.2072H774.744C777.457 49.2072 779.764 50.1578 781.663 52.059C783.563 53.9601 784.513 56.2687 784.513 58.9847C784.513 61.7006 783.563 64.0091 781.663 65.9102C779.764 67.8114 777.457 68.762 774.744 68.762H650.801C648.766 68.762 646.934 69.5089 645.306 71.0026C643.813 72.3606 643.067 74.126 643.067 76.2988C643.067 78.3358 643.813 80.1011 645.306 81.5949C646.934 83.0886 648.766 83.8355 650.801 83.8355H763.347C767.146 83.8355 770.673 84.5824 773.93 86.0762C777.322 87.4341 780.239 89.3353 782.681 91.7797C785.123 94.224 787.023 97.1436 788.379 100.539C789.872 103.798 790.618 107.328 790.618 111.131C790.618 114.933 789.872 118.464 788.379 121.723C787.023 124.982 785.123 127.834 782.681 130.278C780.239 132.723 777.322 134.624 773.93 135.982C770.673 137.34 767.146 138.019 763.347 138.019H640.014C637.3 138.019 634.994 137.068 633.094 135.167C631.195 133.266 630.245 130.957 630.245 128.241C630.245 125.525 631.195 123.217 633.094 121.316C634.994 119.414 637.3 118.464 640.014 118.464H764.161C766.196 118.464 767.96 117.785 769.452 116.427C770.945 114.933 771.691 113.168 771.691 111.131C771.691 108.958 770.945 107.125 769.452 105.631C767.96 104.137 766.196 103.39 764.161 103.39H651.208Z" fill="url(#paint3_linear_83_1513)"/>
<path d="M963.572 94.0651C963.572 91.6086 963.231 88.9474 962.549 86.0815C962.003 83.0791 960.843 80.3495 959.069 77.893C957.431 75.4365 955.111 73.3894 952.109 71.7517C949.107 69.9776 945.285 69.0905 940.645 69.0905H866.745C861.969 69.0905 858.079 69.9776 855.077 71.7517C852.211 73.3894 849.891 75.4365 848.117 77.893C846.479 80.3495 845.319 83.0791 844.637 86.0815C844.091 88.9474 843.818 91.6086 843.818 94.0651V128.865C843.818 131.595 842.862 133.915 840.952 135.825C839.041 137.736 836.722 138.691 833.992 138.691C831.263 138.691 828.942 137.736 827.032 135.825C825.121 133.915 824.166 131.595 824.166 128.865V94.0651C824.166 88.8791 824.985 83.6932 826.623 78.5072C828.397 73.1848 830.921 68.4083 834.197 64.1777C837.472 59.8106 841.43 56.2621 846.07 53.5327C850.71 50.8032 855.964 49.4386 861.833 49.4386H947.605C953.201 49.7115 958.182 51.281 962.549 54.1469C966.916 56.8764 970.601 60.3564 973.603 64.587C976.742 68.8177 979.13 73.526 980.768 78.7119C982.406 83.8979 983.225 89.0156 983.225 94.0651V128.865C983.225 131.595 982.269 133.915 980.359 135.825C978.448 137.736 976.128 138.691 973.398 138.691C970.669 138.691 968.349 137.736 966.438 135.825C964.528 133.915 963.572 131.595 963.572 128.865V94.0651ZM917.718 40.6361C914.033 40.6361 910.621 40.022 907.482 38.7938C904.343 37.5655 901.614 35.7914 899.294 33.4714C897.11 31.2878 895.473 29.3771 894.381 27.7394C893.289 25.9653 892.334 24.5324 891.515 23.4406C890.833 22.2124 890.014 21.3253 889.058 20.7795C888.24 20.2336 887.012 19.9605 885.374 19.9605C883.19 19.9605 881.279 20.643 879.642 22.0077C878.141 23.236 877.117 24.8055 876.571 26.7161C876.025 28.8996 874.865 30.742 873.091 32.2431C871.454 33.6079 869.475 34.2901 867.155 34.2901C864.425 34.2901 862.105 33.3348 860.195 31.4242C858.284 29.5136 857.329 27.1937 857.329 24.4642C857.329 23.236 857.533 22.0759 857.943 20.9841C859.581 14.8429 862.924 9.86178 867.974 6.04056C873.023 2.21934 878.823 0.308594 885.374 0.308594C892.88 0.308594 898.953 2.76517 903.593 7.67816C905.776 9.99819 907.414 12.0453 908.506 13.8195C909.598 15.4571 910.553 16.8218 911.372 17.9136C912.191 19.0054 913.01 19.8242 913.828 20.3701C914.784 20.7795 916.08 20.9841 917.718 20.9841C919.901 20.9841 921.743 20.3701 923.245 19.1419C924.882 17.7771 925.974 16.1394 926.52 14.2288C927.066 12.0453 928.158 10.2711 929.796 8.90642C931.57 7.40522 933.617 6.65457 935.937 6.65457C938.666 6.65457 940.986 7.60982 942.897 9.52043C944.807 11.431 945.763 13.7512 945.763 16.4807C945.763 17.8454 945.558 19.0052 945.149 19.9605C943.511 26.1018 940.167 31.0831 935.118 34.9043C930.068 38.7256 924.268 40.6361 917.718 40.6361Z" fill="url(#paint4_linear_83_1513)"/>
<defs>
<linearGradient id="paint0_linear_83_1513" x1="101.81" y1="0.308594" x2="101.81" y2="138.691" gradientUnits="userSpaceOnUse">
<stop stop-color="white"/>
<stop offset="1" stop-color="#707070"/>
</linearGradient>
<linearGradient id="paint1_linear_83_1513" x1="303.383" y1="0.308594" x2="303.383" y2="138.691" gradientUnits="userSpaceOnUse">
<stop stop-color="white"/>
<stop offset="1" stop-color="#707070"/>
</linearGradient>
<linearGradient id="paint2_linear_83_1513" x1="504.837" y1="46.8555" x2="504.837" y2="138.691" gradientUnits="userSpaceOnUse">
<stop stop-color="white"/>
<stop offset="1" stop-color="#707070"/>
</linearGradient>
<linearGradient id="paint3_linear_83_1513" x1="707.379" y1="14.9863" x2="707.379" y2="172.239" gradientUnits="userSpaceOnUse">
<stop stop-color="white"/>
<stop offset="1" stop-color="#707070"/>
</linearGradient>
<linearGradient id="paint4_linear_83_1513" x1="903.695" y1="0.308594" x2="903.695" y2="138.691" gradientUnits="userSpaceOnUse">
<stop stop-color="white"/>
<stop offset="1" stop-color="#707070"/>
</linearGradient>
</defs>
</svg>
